<?xml version="1.0" encoding="UTF-8"?>
<!DOCTYPE svg PUBLIC "-//W3C//DTD SVG 1.1//EN" "http://www.w3.org/Graphics/SVG/1.1/DTD/svg11.dtd">
<svg xmlns="http://www.w3.org/2000/svg" version="1.1" width="600px" height="480px" style="shape-rendering:geometricPrecision; text-rendering:geometricPrecision; image-rendering:optimizeQuality; fill-rule:evenodd; clip-rule:evenodd" xmlns:xlink="http://www.w3.org/1999/xlink">
<g><path style="opacity:1" fill="#ee2a54" d="M -0.5,-0.5 C 199.5,-0.5 399.5,-0.5 599.5,-0.5C 599.5,55.5 599.5,111.5 599.5,167.5C 597.871,168.625 596.371,169.959 595,171.5C 595.208,166.702 593.042,164.868 588.5,166C 586.845,167.444 586.178,169.278 586.5,171.5C 583.383,171.642 580.883,172.976 579,175.5C 574.048,170.532 568.714,170.199 563,174.5C 561.278,172.556 559.111,171.556 556.5,171.5C 553.655,172.73 550.822,172.73 548,171.5C 545.551,171.861 543.218,172.528 541,173.5C 538.136,167.311 533.303,165.144 526.5,167C 526,167.5 525.5,168 525,168.5C 524.333,175.167 524.333,181.833 525,188.5C 529.497,190.906 534.164,190.906 539,188.5C 541.727,191.025 544.393,191.025 547,188.5C 547.179,185.447 547.679,182.447 548.5,179.5C 548.343,181.889 548.676,184.389 549.5,187C 550.272,188.221 551.272,189.221 552.5,190C 558.189,189.591 563.855,189.591 569.5,190C 570.136,186.21 570.803,182.377 571.5,178.5C 572.197,182.377 572.864,186.21 573.5,190C 576.352,190.913 578.519,190.08 580,187.5C 584.38,190.816 589.213,191.483 594.5,189.5C 594.343,188.127 594.51,186.793 595,185.5C 596.371,187.041 597.871,188.375 599.5,189.5C 599.5,286.167 599.5,382.833 599.5,479.5C 399.5,479.5 199.5,479.5 -0.5,479.5C -0.5,382.833 -0.5,286.167 -0.5,189.5C 5.1359,189.848 10.8026,190.015 16.5,190C 17.1363,186.21 17.803,182.377 18.5,178.5C 19.1259,188.469 24.1259,191.969 33.5,189C 35.317,187.2 36.4837,185.034 37,182.5C 37.5394,186.621 39.7061,189.288 43.5,190.5C 45.6632,190.078 46.9966,188.744 47.5,186.5C 48.8745,189.729 51.2079,190.896 54.5,190C 56.2353,187.808 57.402,185.308 58,182.5C 61.0252,190.338 66.3585,192.338 74,188.5C 74.8313,181.144 74.6646,173.811 73.5,166.5C 68.7024,164.625 66.369,166.292 66.5,171.5C 64.4176,171.472 62.5843,172.139 61,173.5C 56.9592,171.652 53.9592,172.652 52,176.5C 50.9365,172.705 48.4365,171.539 44.5,173C 43.6644,177.168 42.6644,177.335 41.5,173.5C 38.6791,172.029 36.1791,172.363 34,174.5C 30.6031,171.019 26.9364,170.686 23,173.5C 19.2356,171.008 15.4023,171.008 11.5,173.5C 11.5221,172.005 11.1887,170.338 10.5,168.5C 6.91575,166.509 3.24909,166.176 -0.5,167.5C -0.5,111.5 -0.5,55.5 -0.5,-0.5 Z"/></g>
<g><path style="opacity:1" fill="#e23055" d="M 138.5,49.5 C 143.031,48.8861 145.197,50.8861 145,55.5C 149.284,50.1463 154.451,49.1463 160.5,52.5C 161.189,54.3381 161.522,56.0048 161.5,57.5C 165.402,55.008 169.236,55.008 173,57.5C 176.936,54.686 180.603,55.0193 184,58.5C 186.179,56.3628 188.679,56.0295 191.5,57.5C 192.664,61.3346 193.664,61.1679 194.5,57C 198.436,55.5388 200.936,56.7054 202,60.5C 203.959,56.6516 206.959,55.6516 211,57.5C 212.584,56.1387 214.418,55.472 216.5,55.5C 216.369,50.2917 218.702,48.6251 223.5,50.5C 224.665,57.8107 224.831,65.144 224,72.5C 216.358,76.3381 211.025,74.3381 208,66.5C 207.333,68.5 206.667,70.5 206,72.5C 202.458,75.4079 199.625,74.7412 197.5,70.5C 196.413,74.3571 194.079,75.3571 190.5,73.5C 188.806,71.4457 187.639,69.1123 187,66.5C 185.362,73.0585 181.196,75.5585 174.5,74C 173.421,73.044 172.255,72.2106 171,71.5C 170.167,68.5 169.333,65.5 168.5,62.5C 167.803,66.3771 167.136,70.2104 166.5,74C 161.196,73.6522 155.862,73.6522 150.5,74C 148.376,72.8783 146.543,71.3783 145,69.5C 144.51,70.7932 144.343,72.1266 144.5,73.5C 139.213,75.4826 134.38,74.816 130,71.5C 128.519,74.0799 126.352,74.9132 123.5,74C 122.864,70.2104 122.197,66.3771 121.5,62.5C 120.803,66.3771 120.136,70.2104 119.5,74C 113.855,73.5912 108.189,73.5912 102.5,74C 101.272,73.221 100.272,72.221 99.5,71C 98.676,68.3888 98.3426,65.8888 98.5,63.5C 97.6786,66.4465 97.1786,69.4465 97,72.5C 94.3933,75.0255 91.7266,75.0255 89,72.5C 84.1639,74.9064 79.4973,74.9064 75,72.5C 74.3333,65.8333 74.3333,59.1667 75,52.5C 78.9583,50.0816 83.1249,49.9149 87.5,52C 89.0412,53.5793 90.2078,55.4127 91,57.5C 93.2177,56.528 95.551,55.8613 98,55.5C 100.822,56.7296 103.655,56.7296 106.5,55.5C 109.111,55.5559 111.278,56.5559 113,58.5C 118.714,54.1989 124.048,54.5323 129,59.5C 130.883,56.9756 133.383,55.6423 136.5,55.5C 136.253,53.1417 136.919,51.1417 138.5,49.5 Z"/></g>
<g><path style="opacity:1" fill="#e23055" d="M 438.5,49.5 C 443.031,48.8861 445.197,50.8861 445,55.5C 449.284,50.1463 454.451,49.1463 460.5,52.5C 461.189,54.3381 461.522,56.0048 461.5,57.5C 465.402,55.008 469.236,55.008 473,57.5C 476.936,54.686 480.603,55.0193 484,58.5C 486.179,56.3628 488.679,56.0295 491.5,57.5C 492.664,61.3346 493.664,61.1679 494.5,57C 498.436,55.5388 500.936,56.7054 502,60.5C 503.959,56.6516 506.959,55.6516 511,57.5C 512.584,56.1387 514.418,55.472 516.5,55.5C 516.369,50.2917 518.702,48.6251 523.5,50.5C 524.665,57.8107 524.831,65.144 524,72.5C 516.358,76.3381 511.025,74.3381 508,66.5C 507.333,68.5 506.667,70.5 506,72.5C 502.458,75.4079 499.625,74.7412 497.5,70.5C 496.413,74.3571 494.079,75.3571 490.5,73.5C 488.806,71.4457 487.639,69.1123 487,66.5C 485.362,73.0585 481.196,75.5585 474.5,74C 473.421,73.044 472.255,72.2106 471,71.5C 470.167,68.5 469.333,65.5 468.5,62.5C 467.803,66.3771 467.136,70.2104 466.5,74C 461.196,73.6522 455.862,73.6522 450.5,74C 448.376,72.8783 446.543,71.3783 445,69.5C 444.51,70.7932 444.343,72.1266 444.5,73.5C 439.213,75.4826 434.38,74.816 430,71.5C 428.519,74.0799 426.352,74.9132 423.5,74C 422.864,70.2104 422.197,66.3771 421.5,62.5C 420.803,66.3771 420.136,70.2104 419.5,74C 413.855,73.5912 408.189,73.5912 402.5,74C 401.272,73.221 400.272,72.221 399.5,71C 398.676,68.3888 398.343,65.8888 398.5,63.5C 397.679,66.4465 397.179,69.4465 397,72.5C 394.393,75.0255 391.727,75.0255 389,72.5C 384.164,74.9064 379.497,74.9064 375,72.5C 374.333,65.8333 374.333,59.1667 375,52.5C 378.958,50.0816 383.125,49.9149 387.5,52C 389.041,53.5793 390.208,55.4127 391,57.5C 393.218,56.528 395.551,55.8613 398,55.5C 400.822,56.7296 403.655,56.7296 406.5,55.5C 409.111,55.5559 411.278,56.5559 413,58.5C 418.714,54.1989 424.048,54.5323 429,59.5C 430.883,56.9756 433.383,55.6423 436.5,55.5C 436.253,53.1417 436.919,51.1417 438.5,49.5 Z"/></g>
<g><path style="opacity:1" fill="#fdf2ea" d="M 243.5,102.5 C 280.502,102.333 317.502,102.5 354.5,103C 369.359,105.527 378.859,114.027 383,128.5C 383.667,167.167 383.667,205.833 383,244.5C 379.058,258.109 370.225,266.609 356.5,270C 317.833,270.667 279.167,270.667 240.5,270C 227.904,265.738 219.738,257.238 216,244.5C 215.333,205.833 215.333,167.167 216,128.5C 220.209,114.455 229.375,105.788 243.5,102.5 Z"/></g>
<g><path style="opacity:1" fill="#ee2c55" d="M 319.5,170.5 C 318.5,171.167 317.5,171.833 316.5,172.5C 301.478,172.785 286.478,172.452 271.5,171.5C 268.408,171.808 265.575,172.808 263,174.5C 261.278,172.556 259.111,171.556 256.5,171.5C 253.86,172.095 251.193,172.428 248.5,172.5C 248.5,170.833 248.5,169.167 248.5,167.5C 254.184,147.983 267.184,139.483 287.5,142C 293.563,143.531 298.897,146.364 303.5,150.5C 311.1,143.466 320.1,140.299 330.5,141C 335.5,136 340.5,131 345.5,126C 351.833,125.333 358.167,125.333 364.5,126C 348.994,140.339 333.994,155.173 319.5,170.5 Z"/></g>
<g><path style="opacity:1" fill="#e33055" d="M -0.5,189.5 C -0.5,182.167 -0.5,174.833 -0.5,167.5C 3.24909,166.176 6.91575,166.509 10.5,168.5C 11.1887,170.338 11.5221,172.005 11.5,173.5C 15.4023,171.008 19.2356,171.008 23,173.5C 26.9364,170.686 30.6031,171.019 34,174.5C 36.1791,172.363 38.6791,172.029 41.5,173.5C 42.6644,177.335 43.6644,177.168 44.5,173C 48.4365,171.539 50.9365,172.705 52,176.5C 53.9592,172.652 56.9592,171.652 61,173.5C 62.5843,172.139 64.4176,171.472 66.5,171.5C 66.369,166.292 68.7024,164.625 73.5,166.5C 74.6646,173.811 74.8313,181.144 74,188.5C 66.3585,192.338 61.0252,190.338 58,182.5C 57.402,185.308 56.2353,187.808 54.5,190C 51.2079,190.896 48.8745,189.729 47.5,186.5C 46.9966,188.744 45.6632,190.078 43.5,190.5C 39.7061,189.288 37.5394,186.621 37,182.5C 36.4837,185.034 35.317,187.2 33.5,189C 24.1259,191.969 19.1259,188.469 18.5,178.5C 17.803,182.377 17.1363,186.21 16.5,190C 10.8026,190.015 5.1359,189.848 -0.5,189.5 Z"/></g>
<g><path style="opacity:1" fill="#e23055" d="M 599.5,167.5 C 599.5,174.833 599.5,182.167 599.5,189.5C 597.871,188.375 596.371,187.041 595,185.5C 594.51,186.793 594.343,188.127 594.5,189.5C 589.213,191.483 584.38,190.816 580,187.5C 578.519,190.08 576.352,190.913 573.5,190C 572.864,186.21 572.197,182.377 571.5,178.5C 570.803,182.377 570.136,186.21 569.5,190C 563.855,189.591 558.189,189.591 552.5,190C 551.272,189.221 550.272,188.221 549.5,187C 548.676,184.389 548.343,181.889 548.5,179.5C 547.679,182.447 547.179,185.447 547,188.5C 544.393,191.025 541.727,191.025 539,188.5C 534.164,190.906 529.497,190.906 525,188.5C 524.333,181.833 524.333,175.167 525,168.5C 525.5,168 526,167.5 526.5,167C 533.303,165.144 538.136,167.311 541,173.5C 543.218,172.528 545.551,171.861 548,171.5C 550.822,172.73 553.655,172.73 556.5,171.5C 559.111,171.556 561.278,172.556 563,174.5C 568.714,170.199 574.048,170.532 579,175.5C 580.883,172.976 583.383,171.642 586.5,171.5C 586.178,169.278 586.845,167.444 588.5,166C 593.042,164.868 595.208,166.702 595,171.5C 596.371,169.959 597.871,168.625 599.5,167.5 Z"/></g>
<g><path style="opacity:1" fill="#e3405e" d="M 248.5,167.5 C 248.5,169.167 248.5,170.833 248.5,172.5C 251.193,172.428 253.86,172.095 256.5,171.5C 259.111,171.556 261.278,172.556 263,174.5C 265.575,172.808 268.408,171.808 271.5,171.5C 286.478,172.452 301.478,172.785 316.5,172.5C 301.339,173.331 286.005,173.831 270.5,174C 264.964,179.369 259.63,184.869 254.5,190.5C 253.603,191.598 252.77,191.598 252,190.5C 248.043,183.073 246.876,175.406 248.5,167.5 Z"/></g>
<g><path style="opacity:1" fill="#f3e8e1" d="M 319.5,170.5 C 320.105,172.026 321.271,173.026 323,173.5C 326.791,171.018 330.624,171.018 334.5,173.5C 329.833,178.5 325.167,183.5 320.5,188.5C 314.854,193.812 309.187,199.145 303.5,204.5C 295.848,197.348 288.348,190.015 281,182.5C 278.297,185.371 275.464,188.038 272.5,190.5C 272.211,174.841 271.211,174.674 269.5,190C 264.5,189.174 259.5,189.341 254.5,190.5C 259.63,184.869 264.964,179.369 270.5,174C 286.005,173.831 301.339,173.331 316.5,172.5C 317.5,171.833 318.5,171.167 319.5,170.5 Z"/></g>
<g><path style="opacity:1" fill="#e53357" d="M 354.5,190.5 C 351.208,190.88 348.875,189.547 347.5,186.5C 346.827,189.997 344.827,191.163 341.5,190C 339.122,188.085 337.622,185.585 337,182.5C 336.12,187.88 332.953,190.547 327.5,190.5C 325.159,189.818 322.826,189.151 320.5,188.5C 325.167,183.5 329.833,178.5 334.5,173.5C 340.813,167.522 347.146,161.522 353.5,155.5C 361.104,167.035 361.437,178.702 354.5,190.5 Z"/></g>
<g><path style="opacity:1" fill="#ee2b54" d="M 320.5,188.5 C 322.826,189.151 325.159,189.818 327.5,190.5C 332.953,190.547 336.12,187.88 337,182.5C 337.622,185.585 339.122,188.085 341.5,190C 344.827,191.163 346.827,189.997 347.5,186.5C 348.875,189.547 351.208,190.88 354.5,190.5C 338.218,208.449 321.218,225.782 303.5,242.5C 292.833,232.167 282.167,221.833 271.5,211.5C 264.049,217.449 257.049,223.949 250.5,231C 244.167,231.667 237.833,231.667 231.5,231C 245.062,217.271 258.728,203.771 272.5,190.5C 275.464,188.038 278.297,185.371 281,182.5C 288.348,190.015 295.848,197.348 303.5,204.5C 309.187,199.145 314.854,193.812 320.5,188.5 Z"/></g>
<g><path style="opacity:1" fill="#e63a5c" d="M 514.5,314.5 C 515.3,309.874 513.966,306.04 510.5,303C 503.95,301.58 497.284,301.08 490.5,301.5C 490.842,300.662 491.508,300.328 492.5,300.5C 495.898,300.82 499.232,300.487 502.5,299.5C 504.682,296.451 507.516,295.784 511,297.5C 512.584,296.139 514.418,295.472 516.5,295.5C 516.369,290.292 518.702,288.625 523.5,290.5C 524.665,297.811 524.831,305.144 524,312.5C 521.049,314.076 517.883,314.743 514.5,314.5 Z"/></g>
<g><path style="opacity:1" fill="#ed4867" d="M 385.5,313.5 C 385.81,316.713 385.477,319.713 384.5,322.5C 384.5,315.5 384.5,308.5 384.5,301.5C 382.167,301.5 379.833,301.5 377.5,301.5C 377.5,305.167 377.5,308.833 377.5,312.5C 376.509,306.021 376.176,299.354 376.5,292.5C 380.839,291.846 384.673,292.846 388,295.5C 388.687,297.92 388.187,300.087 386.5,302C 388.478,304.497 388.978,307.331 388,310.5C 386.583,311.078 385.75,312.078 385.5,313.5 Z"/></g>
<g><path style="opacity:1" fill="#e23356" d="M 229.5,301.5 C 220.833,301.5 212.167,301.5 203.5,301.5C 203.5,303.5 203.5,305.5 203.5,307.5C 204.209,308.404 205.209,308.737 206.5,308.5C 207.127,311.864 205.794,313.864 202.5,314.5C 200.259,313.929 198.592,312.596 197.5,310.5C 196.827,313.997 194.827,315.163 191.5,314C 189.548,312.588 188.215,310.755 187.5,308.5C 188.688,309.684 189.855,309.684 191,308.5C 194.518,303.612 193.018,301.112 186.5,301C 175.659,299.344 168.992,303.844 166.5,314.5C 163.093,313.785 159.76,313.785 156.5,314.5C 153.529,303.171 146.195,298.671 134.5,301C 128.631,303.245 124.964,307.412 123.5,313.5C 122.063,299.161 120.896,299.161 120,313.5C 117.837,314.768 115.67,314.768 113.5,313.5C 112.153,308.963 109.486,305.463 105.5,303C 98.9236,301.623 92.2569,301.123 85.5,301.5C 85.5,305.833 85.5,310.167 85.5,314.5C 81.6494,315.029 78.1494,314.362 75,312.5C 74.3333,305.833 74.3333,299.167 75,292.5C 78.9583,290.082 83.1249,289.915 87.5,292C 89.0412,293.579 90.2078,295.413 91,297.5C 93.2177,296.528 95.551,295.861 98,295.5C 100.822,296.73 103.655,296.73 106.5,295.5C 109.111,295.556 111.278,296.556 113,298.5C 118.104,294.691 123.104,294.691 128,298.5C 128.333,299.5 128.667,300.5 129,301.5C 129.863,297.482 132.363,295.482 136.5,295.5C 136.369,290.292 138.702,288.625 143.5,290.5C 144.298,292.078 144.798,293.744 145,295.5C 149.284,290.146 154.451,289.146 160.5,292.5C 161.189,294.338 161.522,296.005 161.5,297.5C 165.402,295.008 169.236,295.008 173,297.5C 176.936,294.686 180.603,295.019 184,298.5C 186.179,296.363 188.679,296.029 191.5,297.5C 192.664,301.335 193.664,301.168 194.5,297C 198.436,295.539 200.936,296.705 202,300.5C 203.959,296.652 206.959,295.652 211,297.5C 212.584,296.139 214.418,295.472 216.5,295.5C 216.369,290.292 218.702,288.625 223.5,290.5C 224.487,293.768 224.82,297.102 224.5,300.5C 226.415,300.216 228.081,300.549 229.5,301.5 Z"/></g>
<g><path style="opacity:1" fill="#e23457" d="M 492.5,300.5 C 491.508,300.328 490.842,300.662 490.5,301.5C 490.5,311.833 490.5,322.167 490.5,332.5C 489.671,325.679 489.171,318.679 489,311.5C 488.138,309.913 487.471,308.246 487,306.5C 485.963,312.368 482.463,315.035 476.5,314.5C 476.784,316.415 476.451,318.081 475.5,319.5C 475.5,317.167 475.5,314.833 475.5,312.5C 471.5,312.5 467.5,312.5 463.5,312.5C 463.5,311.167 463.5,309.833 463.5,308.5C 468.695,308.821 473.695,308.487 478.5,307.5C 478.5,305.5 478.5,303.5 478.5,301.5C 471.018,300.508 463.352,300.175 455.5,300.5C 455.5,305.167 455.5,309.833 455.5,314.5C 451.05,314.858 447.55,313.192 445,309.5C 444.536,310.094 444.369,310.761 444.5,311.5C 441.195,304.341 435.528,301.008 427.5,301.5C 424.038,300.518 420.371,300.185 416.5,300.5C 416.5,304.833 416.5,309.167 416.5,313.5C 412.481,313.646 408.481,313.979 404.5,314.5C 404.5,310.167 404.5,305.833 404.5,301.5C 402.167,301.5 399.833,301.5 397.5,301.5C 397.5,311.833 397.5,322.167 397.5,332.5C 396.672,326.347 396.172,320.013 396,313.5C 392.561,313.288 389.061,313.288 385.5,313.5C 385.75,312.078 386.583,311.078 388,310.5C 388.978,307.331 388.478,304.497 386.5,302C 388.187,300.087 388.687,297.92 388,295.5C 384.673,292.846 380.839,291.846 376.5,292.5C 376.176,299.354 376.509,306.021 377.5,312.5C 377.5,312.833 377.5,313.167 377.5,313.5C 376.504,313.586 375.671,313.252 375,312.5C 374.333,305.833 374.333,299.167 375,292.5C 378.958,290.082 383.125,289.915 387.5,292C 389.041,293.579 390.208,295.413 391,297.5C 393.218,296.528 395.551,295.861 398,295.5C 400.822,296.73 403.655,296.73 406.5,295.5C 409.111,295.556 411.278,296.556 413,298.5C 417.255,295.428 421.755,294.928 426.5,297C 427.701,297.903 428.535,299.069 429,300.5C 430.41,297.211 432.91,295.544 436.5,295.5C 436.369,290.292 438.702,288.625 443.5,290.5C 444.298,292.078 444.798,293.744 445,295.5C 449.284,290.146 454.451,289.146 460.5,292.5C 461.189,294.338 461.522,296.005 461.5,297.5C 465.402,295.008 469.236,295.008 473,297.5C 476.936,294.686 480.603,295.019 484,298.5C 486.179,296.363 488.679,296.029 491.5,297.5C 492.127,298.417 492.461,299.417 492.5,300.5 Z"/></g>
<g><path style="opacity:1" fill="#fdeee7" d="M 249.5,300.5 C 266.695,299.852 273.528,307.852 270,324.5C 263.772,333.714 255.606,335.881 245.5,331C 238.271,324.285 236.771,316.451 241,307.5C 243.441,304.546 246.275,302.213 249.5,300.5 Z"/></g>
<g><path style="opacity:1" fill="#fdeee8" d="M 338.5,325.5 C 339.434,324.432 339.768,323.099 339.5,321.5C 337.833,321.5 336.167,321.5 334.5,321.5C 334.5,319.5 334.5,317.5 334.5,315.5C 338.5,315.5 342.5,315.5 346.5,315.5C 348.974,329.858 342.974,335.691 328.5,333C 317.311,327.332 314.478,318.832 320,307.5C 327.361,299.368 335.528,298.368 344.5,304.5C 343.167,306.167 341.833,307.833 340.5,309.5C 333.889,305.793 328.723,307.126 325,313.5C 324.118,323.791 328.618,327.791 338.5,325.5 Z"/></g>
<g><path style="opacity:1" fill="#f79daa" d="M 298.5,301.5 C 293.5,301.5 288.5,301.5 283.5,301.5C 283.5,311.833 283.5,322.167 283.5,332.5C 282.506,322.013 282.172,311.346 282.5,300.5C 288.026,300.179 293.36,300.512 298.5,301.5 Z"/></g>
<g><path style="opacity:1" fill="#fdeee8" d="M 298.5,301.5 C 302.961,301.79 305.795,304.123 307,308.5C 307.584,311.257 307.25,313.923 306,316.5C 304.315,318.017 302.815,319.684 301.5,321.5C 303.167,324.833 304.833,328.167 306.5,331.5C 304.235,332.647 301.902,332.814 299.5,332C 297.793,328.752 295.96,325.585 294,322.5C 292.989,321.663 291.822,321.33 290.5,321.5C 290.5,325.167 290.5,328.833 290.5,332.5C 288.167,332.5 285.833,332.5 283.5,332.5C 283.5,322.167 283.5,311.833 283.5,301.5C 288.5,301.5 293.5,301.5 298.5,301.5 Z"/></g>
<g><path style="opacity:1" fill="#f9adb6" d="M 364.5,301.5 C 362.5,301.5 360.5,301.5 358.5,301.5C 358.5,308.833 358.5,316.167 358.5,323.5C 357.508,316.018 357.175,308.352 357.5,300.5C 360.059,300.198 362.393,300.532 364.5,301.5 Z"/></g>
<g><path style="opacity:1" fill="#fcefe8" d="M 364.5,301.5 C 364.334,308.175 364.5,314.842 365,321.5C 368.132,327.244 372.132,327.911 377,323.5C 377.498,320.183 377.665,316.85 377.5,313.5C 377.5,313.167 377.5,312.833 377.5,312.5C 377.5,308.833 377.5,305.167 377.5,301.5C 379.833,301.5 382.167,301.5 384.5,301.5C 384.5,308.5 384.5,315.5 384.5,322.5C 381.157,332.337 374.49,335.503 364.5,332C 361.477,329.823 359.477,326.989 358.5,323.5C 358.5,316.167 358.5,308.833 358.5,301.5C 360.5,301.5 362.5,301.5 364.5,301.5 Z"/></g>
<g><path style="opacity:1" fill="#ef3157" d="M 250.5,307.5 C 259.998,306.173 264.498,310.173 264,319.5C 261.897,325.469 257.73,327.636 251.5,326C 246.581,323.259 244.748,319.092 246,313.5C 247.332,311.34 248.832,309.34 250.5,307.5 Z"/></g>
<g><path style="opacity:1" fill="#f78f9f" d="M 298.5,308.5 C 295.833,308.5 293.167,308.5 290.5,308.5C 290.5,310.5 290.5,312.5 290.5,314.5C 289.532,312.393 289.198,310.059 289.5,307.5C 292.713,307.19 295.713,307.523 298.5,308.5 Z"/></g>
<g><path style="opacity:1" fill="#eb8394" d="M 478.5,307.5 C 473.695,308.487 468.695,308.821 463.5,308.5C 463.5,309.833 463.5,311.167 463.5,312.5C 462.549,311.081 462.216,309.415 462.5,307.5C 467.833,307.5 473.167,307.5 478.5,307.5 Z"/></g>
<g><path style="opacity:1" fill="#f9eae3" d="M 187.5,308.5 C 176.238,306.601 172.071,311.268 175,322.5C 179.643,327.453 184.643,327.787 190,323.5C 196.958,327.731 196.124,330.897 187.5,333C 173.814,334.483 166.814,328.317 166.5,314.5C 168.992,303.844 175.659,299.344 186.5,301C 193.018,301.112 194.518,303.612 191,308.5C 189.855,309.684 188.688,309.684 187.5,308.5 Z"/></g>
<g><path style="opacity:1" fill="#ef2f57" d="M 298.5,308.5 C 299.807,310.223 299.807,312.057 298.5,314C 295.854,314.497 293.187,314.664 290.5,314.5C 290.5,312.5 290.5,310.5 290.5,308.5C 293.167,308.5 295.833,308.5 298.5,308.5 Z"/></g>
<g><path style="opacity:1" fill="#faede6" d="M 490.5,301.5 C 497.284,301.08 503.95,301.58 510.5,303C 513.966,306.04 515.3,309.874 514.5,314.5C 513.208,317.401 511.208,319.734 508.5,321.5C 510.626,324.919 512.626,328.419 514.5,332C 511.773,332.818 509.106,332.652 506.5,331.5C 504.58,328.661 502.913,325.661 501.5,322.5C 500.311,321.571 498.978,321.238 497.5,321.5C 497.5,325.167 497.5,328.833 497.5,332.5C 495.167,332.5 492.833,332.5 490.5,332.5C 490.5,322.167 490.5,311.833 490.5,301.5 Z"/></g>
<g><path style="opacity:1" fill="#f9ede6" d="M 404.5,314.5 C 404.5,320.5 404.5,326.5 404.5,332.5C 402.167,332.5 399.833,332.5 397.5,332.5C 397.5,322.167 397.5,311.833 397.5,301.5C 399.833,301.5 402.167,301.5 404.5,301.5C 404.5,305.833 404.5,310.167 404.5,314.5 Z"/></g>
<g><path style="opacity:1" fill="#e5405e" d="M 497.5,307.5 C 500.187,307.336 502.854,307.503 505.5,308C 508.167,310 508.167,312 505.5,314C 502.854,314.497 500.187,314.664 497.5,314.5C 497.5,312.167 497.5,309.833 497.5,307.5 Z"/></g>
<g><path style="opacity:1" fill="#f9ebe4" d="M 156.5,314.5 C 156.794,326.204 151.127,332.538 139.5,333.5C 127.94,331.931 122.607,325.264 123.5,313.5C 124.964,307.412 128.631,303.245 134.5,301C 146.195,298.671 153.529,303.171 156.5,314.5 Z"/></g>
<g><path style="opacity:1" fill="#ec3157" d="M 135.5,307.5 C 143.492,305.984 148.159,309.15 149.5,317C 148.12,325.027 143.453,328.027 135.5,326C 128.88,319.801 128.88,313.634 135.5,307.5 Z"/></g>
<g><path style="opacity:1" fill="#f7ece5" d="M 229.5,301.5 C 229.5,303.5 229.5,305.5 229.5,307.5C 226.5,307.5 223.5,307.5 220.5,307.5C 220.5,315.833 220.5,324.167 220.5,332.5C 218.167,332.5 215.833,332.5 213.5,332.5C 213.5,324.167 213.5,315.833 213.5,307.5C 210.167,307.5 206.833,307.5 203.5,307.5C 203.5,305.5 203.5,303.5 203.5,301.5C 212.167,301.5 220.833,301.5 229.5,301.5 Z"/></g>
<g><path style="opacity:1" fill="#f9ebe4" d="M 113.5,313.5 C 114.356,322.982 110.356,329.148 101.5,332C 96.1771,332.499 90.8437,332.666 85.5,332.5C 85.5,326.5 85.5,320.5 85.5,314.5C 85.5,310.167 85.5,305.833 85.5,301.5C 92.2569,301.123 98.9236,301.623 105.5,303C 109.486,305.463 112.153,308.963 113.5,313.5 Z"/></g>
<g><path style="opacity:1" fill="#ec3156" d="M 99.5,308.5 C 106.7,311.619 108.2,316.619 104,323.5C 102.416,324.861 100.582,325.528 98.5,325.5C 96.8333,325.5 95.1667,325.5 93.5,325.5C 93.5,319.833 93.5,314.167 93.5,308.5C 95.5,308.5 97.5,308.5 99.5,308.5 Z"/></g>
<g><path style="opacity:1" fill="#faeee7" d="M 427.5,301.5 C 435.528,301.008 441.195,304.341 444.5,311.5C 445.59,318.168 443.924,324.001 439.5,329C 437.51,330.751 435.177,331.751 432.5,332C 427.511,332.499 422.511,332.666 417.5,332.5C 417.5,322.167 417.5,311.833 417.5,301.5C 420.833,301.5 424.167,301.5 427.5,301.5 Z"/></g>
<g><path style="opacity:1" fill="#ec3458" d="M 430.5,308.5 C 437.906,311.501 439.406,316.501 435,323.5C 431.725,326.293 428.225,326.96 424.5,325.5C 424.5,319.833 424.5,314.167 424.5,308.5C 426.5,308.5 428.5,308.5 430.5,308.5 Z"/></g>
<g><path style="opacity:1" fill="#f9eee6" d="M 478.5,301.5 C 478.5,303.5 478.5,305.5 478.5,307.5C 473.167,307.5 467.833,307.5 462.5,307.5C 462.216,309.415 462.549,311.081 463.5,312.5C 467.5,312.5 471.5,312.5 475.5,312.5C 475.5,314.833 475.5,317.167 475.5,319.5C 471.5,319.5 467.5,319.5 463.5,319.5C 462.532,321.607 462.198,323.941 462.5,326.5C 467.833,326.5 473.167,326.5 478.5,326.5C 478.5,328.5 478.5,330.5 478.5,332.5C 471.167,332.5 463.833,332.5 456.5,332.5C 456.5,322.167 456.5,311.833 456.5,301.5C 463.833,301.5 471.167,301.5 478.5,301.5 Z"/></g>
<g><path style="opacity:1" fill="#f395a4" d="M 99.5,308.5 C 97.5,308.5 95.5,308.5 93.5,308.5C 93.5,314.167 93.5,319.833 93.5,325.5C 95.1667,325.5 96.8333,325.5 98.5,325.5C 96.7354,326.461 94.7354,326.795 92.5,326.5C 92.5,320.167 92.5,313.833 92.5,307.5C 95.0593,307.198 97.3926,307.532 99.5,308.5 Z"/></g>
<g><path style="opacity:1" fill="#ef6a82" d="M 203.5,307.5 C 206.833,307.5 210.167,307.5 213.5,307.5C 213.5,315.833 213.5,324.167 213.5,332.5C 212.508,324.684 212.174,316.684 212.5,308.5C 210.5,308.5 208.5,308.5 206.5,308.5C 205.209,308.737 204.209,308.404 203.5,307.5 Z"/></g>
<g><path style="opacity:1" fill="#f494a4" d="M 427.5,301.5 C 424.167,301.5 420.833,301.5 417.5,301.5C 417.5,311.833 417.5,322.167 417.5,332.5C 416.51,326.355 416.177,320.022 416.5,313.5C 416.5,309.167 416.5,304.833 416.5,300.5C 420.371,300.185 424.038,300.518 427.5,301.5 Z"/></g>
<g><path style="opacity:1" fill="#f2b0b8" d="M 430.5,308.5 C 428.5,308.5 426.5,308.5 424.5,308.5C 424.5,314.167 424.5,319.833 424.5,325.5C 423.51,319.69 423.177,313.69 423.5,307.5C 426.059,307.198 428.393,307.532 430.5,308.5 Z"/></g>
<g><path style="opacity:1" fill="#f4a1ac" d="M 478.5,301.5 C 471.167,301.5 463.833,301.5 456.5,301.5C 456.5,311.833 456.5,322.167 456.5,332.5C 455.51,326.69 455.177,320.69 455.5,314.5C 455.5,309.833 455.5,305.167 455.5,300.5C 463.352,300.175 471.018,300.508 478.5,301.5 Z"/></g>
<g><path style="opacity:1" fill="#f57b8f" d="M 334.5,315.5 C 334.5,317.5 334.5,319.5 334.5,321.5C 336.167,321.5 337.833,321.5 339.5,321.5C 339.768,323.099 339.434,324.432 338.5,325.5C 338.5,324.5 338.5,323.5 338.5,322.5C 336.833,322.5 335.167,322.5 333.5,322.5C 333.198,319.941 333.532,317.607 334.5,315.5 Z"/></g>
<g><path style="opacity:1" fill="#f68e9f" d="M 463.5,319.5 C 463.5,321.5 463.5,323.5 463.5,325.5C 468.695,325.179 473.695,325.513 478.5,326.5C 473.167,326.5 467.833,326.5 462.5,326.5C 462.198,323.941 462.532,321.607 463.5,319.5 Z"/></g>
<g><path style="opacity:1" fill="#e23055" d="M 288.5,409.5 C 293.031,408.886 295.197,410.886 295,415.5C 299.284,410.146 304.451,409.146 310.5,412.5C 311.189,414.338 311.522,416.005 311.5,417.5C 315.402,415.008 319.236,415.008 323,417.5C 326.936,414.686 330.603,415.019 334,418.5C 336.179,416.363 338.679,416.029 341.5,417.5C 342.664,421.335 343.664,421.168 344.5,417C 348.436,415.539 350.936,416.705 352,420.5C 353.959,416.652 356.959,415.652 361,417.5C 362.584,416.139 364.418,415.472 366.5,415.5C 366.369,410.292 368.702,408.625 373.5,410.5C 374.665,417.811 374.831,425.144 374,432.5C 366.358,436.338 361.025,434.338 358,426.5C 357.333,428.5 356.667,430.5 356,432.5C 352.458,435.408 349.625,434.741 347.5,430.5C 346.413,434.357 344.079,435.357 340.5,433.5C 338.806,431.446 337.639,429.112 337,426.5C 335.362,433.058 331.196,435.558 324.5,434C 323.421,433.044 322.255,432.211 321,431.5C 320.167,428.5 319.333,425.5 318.5,422.5C 317.803,426.377 317.136,430.21 316.5,434C 311.196,433.652 305.862,433.652 300.5,434C 298.376,432.878 296.543,431.378 295,429.5C 294.51,430.793 294.343,432.127 294.5,433.5C 289.213,435.483 284.38,434.816 280,431.5C 278.519,434.08 276.352,434.913 273.5,434C 272.864,430.21 272.197,426.377 271.5,422.5C 270.803,426.377 270.136,430.21 269.5,434C 263.855,433.591 258.189,433.591 252.5,434C 251.272,433.221 250.272,432.221 249.5,431C 248.676,428.389 248.343,425.889 248.5,423.5C 247.679,426.447 247.179,429.447 247,432.5C 244.393,435.025 241.727,435.025 239,432.5C 234.164,434.906 229.497,434.906 225,432.5C 224.333,425.833 224.333,419.167 225,412.5C 228.958,410.082 233.125,409.915 237.5,412C 239.041,413.579 240.208,415.413 241,417.5C 243.218,416.528 245.551,415.861 248,415.5C 250.822,416.73 253.655,416.73 256.5,415.5C 259.111,415.556 261.278,416.556 263,418.5C 268.714,414.199 274.048,414.532 279,419.5C 280.883,416.976 283.383,415.642 286.5,415.5C 286.253,413.142 286.919,411.142 288.5,409.5 Z"/></g>
</svg>
